REM DIRINDEX 1\2,1\3,1\4,1\5
REM DIRNAME "folder01","folder02","folder03","folder04","folder05"
TITLE ""
FILE "1Q_j_2356-2369.mp3" MP3
  TRACK 01 AUDIO
    TITLE "3:cjc172_0770"
    INDEX 01 00:00:00
  TRACK 02 AUDIO
    TITLE "0:"
    INDEX 01 00:01:29
  TRACK 03 AUDIO
    TITLE "4:cjc172_0771"
    INDEX 01 00:01:37
  TRACK 04 AUDIO
    TITLE "0:"
    INDEX 01 00:06:44
  TRACK 05 AUDIO
    TITLE "5:cjc172_0772"
    INDEX 01 00:06:52
  TRACK 06 AUDIO
    TITLE "0:"
    INDEX 01 00:12:41
  TRACK 07 AUDIO
    TITLE "3:cjc172_0773"
    INDEX 01 00:13:13
  TRACK 08 AUDIO
    TITLE "0:"
    INDEX 01 00:14:30
  TRACK 09 AUDIO
    TITLE "4:cjc172_0774"
    INDEX 01 00:14:40
  TRACK 10 AUDIO
    TITLE "0:"
    INDEX 01 00:16:43
  TRACK 11 AUDIO
    TITLE "5:cjc172_0775"
    INDEX 01 00:16:49
  TRACK 12 AUDIO
    TITLE "0:"
    INDEX 01 00:21:03
  TRACK 13 AUDIO
    TITLE "3:cjc172_0776"
    INDEX 01 00:21:50
  TRACK 14 AUDIO
    TITLE "0:"
    INDEX 01 00:23:15
  TRACK 15 AUDIO
    TITLE "4:cjc172_0777"
    INDEX 01 00:23:21
  TRACK 16 AUDIO
    TITLE "0:"
    INDEX 01 00:28:01
  TRACK 17 AUDIO
    TITLE "5:cjc172_0778"
    INDEX 01 00:28:07
  TRACK 18 AUDIO
    TITLE "0:"
    INDEX 01 00:33:10
  TRACK 19 AUDIO
    TITLE "3:cjc172_0779"
    INDEX 01 00:33:57
  TRACK 20 AUDIO
    TITLE "0:"
    INDEX 01 00:35:09
  TRACK 21 AUDIO
    TITLE "4:cjc172_0780"
    INDEX 01 00:35:16
  TRACK 22 AUDIO
    TITLE "0:"
    INDEX 01 00:38:09
  TRACK 23 AUDIO
    TITLE "5:cjc172_0781"
    INDEX 01 00:38:17
  TRACK 24 AUDIO
    TITLE "0:"
    INDEX 01 00:44:31
  TRACK 25 AUDIO
    TITLE "3:cjc172_0782"
    INDEX 01 00:45:01
  TRACK 26 AUDIO
    TITLE "0:"
    INDEX 01 00:46:30
  TRACK 27 AUDIO
    TITLE "4:cjc172_0783"
    INDEX 01 00:46:42
  TRACK 28 AUDIO
    TITLE "0:"
    INDEX 01 00:49:48
  TRACK 29 AUDIO
    TITLE "5:cjc172_0784"
    INDEX 01 00:49:56
  TRACK 30 AUDIO
    TITLE "0:"
    INDEX 01 00:54:22
  TRACK 31 AUDIO
    TITLE "3:cjc172_0785"
    INDEX 01 00:54:65
  TRACK 32 AUDIO
    TITLE "0:"
    INDEX 01 00:56:17
  TRACK 33 AUDIO
    TITLE "4:cjc172_0786"
    INDEX 01 00:56:26
  TRACK 34 AUDIO
    TITLE "0:"
    INDEX 01 00:58:14
  TRACK 35 AUDIO
    TITLE "5:cjc172_0787"
    INDEX 01 00:58:21
  TRACK 36 AUDIO
    TITLE "0:"
    INDEX 01 01:05:18
  TRACK 37 AUDIO
    TITLE "3:cjc172_0788"
    INDEX 01 01:05:63
  TRACK 38 AUDIO
    TITLE "0:"
    INDEX 01 01:07:01
  TRACK 39 AUDIO
    TITLE "4:cjc172_0789"
    INDEX 01 01:07:11
  TRACK 40 AUDIO
    TITLE "0:"
    INDEX 01 01:10:48
  TRACK 41 AUDIO
    TITLE "5:cjc172_0790"
    INDEX 01 01:10:56
  TRACK 42 AUDIO
    TITLE "0:"
    INDEX 01 01:18:30
  TRACK 43 AUDIO
    TITLE "3:cjc172_0791"
    INDEX 01 01:19:12
  TRACK 44 AUDIO
    TITLE "0:"
    INDEX 01 01:21:01
  TRACK 45 AUDIO
    TITLE "4:cjc172_0792"
    INDEX 01 01:21:09
  TRACK 46 AUDIO
    TITLE "0:"
    INDEX 01 01:22:73
  TRACK 47 AUDIO
    TITLE "5:cjc172_0793"
    INDEX 01 01:23:04
  TRACK 48 AUDIO
    TITLE "0:"
    INDEX 01 01:26:57
  TRACK 49 AUDIO
    TITLE "3:cjc172_0794"
    INDEX 01 01:27:29
  TRACK 50 AUDIO
    TITLE "0:"
    INDEX 01 01:28:48
  TRACK 51 AUDIO
    TITLE "4:cjc172_0795"
    INDEX 01 01:28:56
  TRACK 52 AUDIO
    TITLE "0:"
    INDEX 01 01:31:68
  TRACK 53 AUDIO
    TITLE "5:cjc172_0796"
    INDEX 01 01:31:74
  TRACK 54 AUDIO
    TITLE "0:"
    INDEX 01 01:39:38
  TRACK 55 AUDIO
    TITLE "3:cjc172_0797"
    INDEX 01 01:40:12
  TRACK 56 AUDIO
    TITLE "0:"
    INDEX 01 01:41:21
  TRACK 57 AUDIO
    TITLE "4:cjc172_0798"
    INDEX 01 01:41:29
  TRACK 58 AUDIO
    TITLE "0:"
    INDEX 01 01:45:25
  TRACK 59 AUDIO
    TITLE "5:cjc172_0799"
    INDEX 01 01:45:31
  TRACK 60 AUDIO
    TITLE "0:"
    INDEX 01 01:48:51
  TRACK 61 AUDIO
    TITLE "3:cjc172_0800"
    INDEX 01 01:49:21
  TRACK 62 AUDIO
    TITLE "0:"
    INDEX 01 01:50:48
  TRACK 63 AUDIO
    TITLE "4:cjc172_0801"
    INDEX 01 01:50:57
  TRACK 64 AUDIO
    TITLE "0:"
    INDEX 01 01:54:12
  TRACK 65 AUDIO
    TITLE "5:cjc172_0802"
    INDEX 01 01:54:18
  TRACK 66 AUDIO
    TITLE "0:"
    INDEX 01 01:59:15
  TRACK 67 AUDIO
    TITLE "3:cjc172_0803"
    INDEX 01 01:59:60
  TRACK 68 AUDIO
    TITLE "0:"
    INDEX 01 02:01:16
  TRACK 69 AUDIO
    TITLE "4:cjc172_0804"
    INDEX 01 02:01:24
  TRACK 70 AUDIO
    TITLE "0:"
    INDEX 01 02:05:02
  TRACK 71 AUDIO
    TITLE "5:cjc172_0805"
    INDEX 01 02:05:10
  TRACK 72 AUDIO
    TITLE "0:"
    INDEX 01 02:12:04
  TRACK 73 AUDIO
    TITLE "3:cjc172_0806"
    INDEX 01 02:12:49
  TRACK 74 AUDIO
    TITLE "0:"
    INDEX 01 02:14:01
  TRACK 75 AUDIO
    TITLE "4:cjc172_0807"
    INDEX 01 02:14:11
  TRACK 76 AUDIO
    TITLE "0:"
    INDEX 01 02:16:08
  TRACK 77 AUDIO
    TITLE "5:cjc172_0808"
    INDEX 01 02:16:14
  TRACK 78 AUDIO
    TITLE "0:"
    INDEX 01 02:22:18
  TRACK 79 AUDIO
    TITLE "3:cjc172_0809"
    INDEX 01 02:22:63
  TRACK 80 AUDIO
    TITLE "0:"
    INDEX 01 02:24:07
  TRACK 81 AUDIO
    TITLE "4:cjc172_0810"
    INDEX 01 02:24:15
  TRACK 82 AUDIO
    TITLE "0:"
    INDEX 01 02:28:68
  TRACK 83 AUDIO
    TITLE "5:cjc172_0811"
    INDEX 01 02:29:01
  TRACK 84 AUDIO
    TITLE "0:"
    INDEX 01 02:34:59
